HIERARCHY
ROOT Hips
{
	OFFSET -0.001795 -0.223333 0.028219
	CHANNELS 6 Xposition Yposition Zposition Zrotation Yrotation Xrotation 
	JOINT LeftUpLeg
	{
		OFFSET 0.069520 -0.091406 -0.006815
		CHANNELS 3 Zrotation Yrotation Xrotation
		JOINT LeftLeg
		{
			OFFSET 0.034277 -0.375199 -0.004496
			CHANNELS 3 Zrotation Yrotation Xrotation
			JOINT LeftFoot
			{
				OFFSET -0.013596 -0.397961 -0.043693
				CHANNELS 3 Zrotation Yrotation Xrotation
				JOINT LeftToe
				{
					OFFSET 0.026358 -0.055791 0.119288
					CHANNELS 3 Zrotation Yrotation Xrotation
					End Site
					{
						OFFSET 0.000000 0.000000 0.000000
					}
				}
			}
		}
	}
	JOINT RightUpLeg
	{
		OFFSET -0.067670 -0.090522 -0.004320
		CHANNELS 3 Zrotation Yrotation Xrotation
		JOINT RightLeg
		{
			OFFSET -0.038290 -0.382569 -0.008850
			CHANNELS 3 Zrotation Yrotation Xrotation
			JOINT RightFoot
			{
				OFFSET 0.015774 -0.398415 -0.042312
				CHANNELS 3 Zrotation Yrotation Xrotation
				JOINT RightToe
				{
					OFFSET -0.025372 -0.048144 0.123348
					CHANNELS 3 Zrotation Yrotation Xrotation
					End Site
					{
						OFFSET 0.000000 0.000000 0.000000
					}
				}
			}
		}
	}
	JOINT Spine
	{
		OFFSET -0.002533 0.108963 -0.026696
		CHANNELS 3 Zrotation Yrotation Xrotation
		JOINT Spine1
		{
			OFFSET 0.005487 0.135180 0.001092
			CHANNELS 3 Zrotation Yrotation Xrotation
			JOINT Spine2
			{
				OFFSET 0.001457 0.052922 0.025425
				CHANNELS 3 Zrotation Yrotation Xrotation
				JOINT Neck
				{
					OFFSET -0.002778 0.213870 -0.042857
					CHANNELS 3 Zrotation Yrotation Xrotation
					JOINT Head
					{
						OFFSET 0.005152 0.064970 0.051349
						CHANNELS 3 Zrotation Yrotation Xrotation
						End Site
						{
							OFFSET 0.000000 0.000000 0.000000
						}
					}
				}
				JOINT LeftShoulder
				{
					OFFSET 0.078845 0.121749 -0.034090
					CHANNELS 3 Zrotation Yrotation Xrotation
					JOINT LeftArm
					{
						OFFSET 0.090977 0.030469 -0.008868
						CHANNELS 3 Zrotation Yrotation Xrotation
						JOINT LeftForeArm
						{
							OFFSET 0.259612 -0.012772 -0.027456
							CHANNELS 3 Zrotation Yrotation Xrotation
							JOINT LeftHand
							{
								OFFSET 0.249234 0.008986 -0.001171
								CHANNELS 3 Zrotation Yrotation Xrotation
								End Site
								{
									OFFSET 0.000000 0.000000 0.000000
								}
							}
						}
					}
				}
				JOINT RightShoulder
				{
					OFFSET -0.081759 0.118833 -0.038615
					CHANNELS 3 Zrotation Yrotation Xrotation
					JOINT RightArm
					{
						OFFSET -0.096012 0.032551 -0.009143
						CHANNELS 3 Zrotation Yrotation Xrotation
						JOINT RightForeArm
						{
							OFFSET -0.253742 -0.013329 -0.021401
							CHANNELS 3 Zrotation Yrotation Xrotation
							JOINT RightHand
							{
								OFFSET -0.255298 0.007772 -0.005559
								CHANNELS 3 Zrotation Yrotation Xrotation
								End Site
								{
									OFFSET 0.000000 0.000000 0.000000
								}
							}
						}
					}
				}
			}
		}
	}
}
MOTION
Frames: 8
Frame Time: 0.050000
0.000000 0.922171 0.000000 -2.612075 -15.109762 0.640276 14.969469 0.915706 -7.619274 -6.752936 1.982808 16.182102 6.639331 14.015751 4.225335 0.000000 0.000000 0.000000 -10.217296 0.905394 -12.439967 6.903615 -0.378698 15.399192 -4.044667 -12.060714 5.357002 0.000000 0.000000 0.000000 3.821945 -0.949458 18.359410 -5.234644 1.612961 -24.477754 -2.488037 7.279837 26.445310 12.097694 -4.449802 -32.330017 0.000000 0.000000 0.000000 -20.817785 -13.229938 6.883863 -42.811775 -15.358739 -2.097397 -8.542583 -37.938909 4.922490 0.000000 0.000000 0.000000 30.134120 1.032723 -2.182670 50.215283 8.986820 -3.278432 20.458036 40.484102 9.252550 0.000000 0.000000 0.000000 
-0.001311 0.920911 0.000835 -2.599067 -14.595329 0.827868 15.864195 1.014391 -7.907030 -7.517810 2.229058 16.648754 5.612204 12.030548 3.337106 0.000000 0.000000 0.000000 -9.857952 0.912721 -12.639439 6.863788 -0.379000 15.826690 -4.379446 -13.161786 6.662281 0.000000 0.000000 0.000000 3.832781 -0.978199 18.750282 -5.378275 1.657617 -24.154879 -2.754052 6.941684 26.023344 12.320087 -4.550904 -32.237830 0.000000 0.000000 0.000000 -22.638434 -12.692500 6.755872 -42.743879 -15.215444 -2.157653 -6.466812 -36.127219 3.989556 0.000000 0.000000 0.000000 29.113501 1.181699 -1.987451 51.215311 8.657286 -3.417179 19.599897 38.295332 8.362959 0.000000 0.000000 0.000000 
-0.002235 0.917979 0.001198 -2.350981 -13.277332 1.292369 15.744716 0.997619 -9.382571 -7.256190 2.184574 17.971589 5.868156 12.473227 1.540936 0.000000 0.000000 0.000000 -10.066260 0.922211 -13.845712 8.025557 -0.640205 18.043024 -5.340906 -14.482856 4.686710 0.000000 0.000000 0.000000 4.135978 -1.068517 18.413255 -5.260142 1.647045 -23.562041 -3.131900 6.370539 25.827010 12.581690 -4.655340 -32.365630 0.000000 0.000000 0.000000 -22.515836 -13.410830 7.094442 -42.517544 -14.994790 -2.200220 -6.228793 -36.230648 3.891264 0.000000 0.000000 0.000000 29.513236 1.501864 -1.707336 51.339893 9.067412 -3.281738 16.685881 36.146723 6.912577 0.000000 0.000000 0.000000 
-0.003106 0.917466 0.001327 -2.281444 -12.930338 1.328920 16.258941 1.081207 -9.951954 -7.526271 2.274437 18.319222 5.353202 11.471904 2.338056 0.000000 0.000000 0.000000 -10.199383 0.926608 -14.401240 8.506579 -0.758613 18.825696 -6.054255 -15.877188 4.402745 0.000000 0.000000 0.000000 4.535349 -1.172001 19.203737 -5.990214 1.842473 -24.011504 -3.191970 6.846420 25.969713 12.915879 -4.584238 -33.054897 0.000000 0.000000 0.000000 -22.987628 -14.327958 7.431818 -42.020053 -14.455566 -2.288729 -5.839191 -37.798132 3.879915 0.000000 0.000000 0.000000 30.109801 1.527207 -1.434760 50.976293 9.442750 -3.201233 16.158052 34.369901 6.426362 0.000000 0.000000 0.000000 
-0.003770 0.915856 0.001289 -2.069061 -12.179135 1.215548 16.365993 1.126038 -10.955732 -7.601106 2.336323 19.325117 5.754102 12.294884 2.954595 0.000000 0.000000 0.000000 -10.408308 0.909083 -15.024402 9.045636 -0.920899 20.207402 -6.520929 -16.772432 4.072779 0.000000 0.000000 0.000000 4.255388 -1.157660 19.495580 -5.952099 1.849413 -23.544631 -3.182985 7.371199 25.881874 13.121818 -4.396092 -33.834314 0.000000 0.000000 0.000000 -22.369601 -14.183082 6.954333 -42.721918 -14.318270 -2.248625 -6.080592 -39.550684 4.128166 0.000000 0.000000 0.000000 30.720046 1.972410 -0.747344 49.833292 9.688071 -3.181990 16.304551 33.211211 6.276843 0.000000 0.000000 0.000000 
-0.004337 0.915411 0.000960 -1.889463 -11.553627 1.405559 16.582960 1.158967 -11.688303 -7.939073 2.403190 19.381427 5.460230 11.746886 3.206931 0.000000 0.000000 0.000000 -10.588385 0.897995 -15.620543 9.452651 -1.065689 21.294227 -6.860377 -17.378726 3.529160 0.000000 0.000000 0.000000 4.042751 -1.166759 20.145280 -6.011171 1.868100 -24.199832 -2.830394 8.044181 26.347139 13.224211 -4.163553 -34.615140 0.000000 0.000000 0.000000 -22.602751 -15.083178 7.162509 -42.631226 -13.797325 -2.352906 -6.405842 -40.525625 4.270941 0.000000 0.000000 0.000000 30.461638 2.442409 0.074001 49.363360 10.100283 -3.183675 16.049376 32.906129 6.210034 0.000000 0.000000 0.000000 
-0.004868 0.914526 0.000382 -1.944571 -11.094453 1.755825 16.775883 1.210430 -12.535985 -7.817131 2.352266 19.636117 5.428756 11.703181 3.408732 0.000000 0.000000 0.000000 -10.439370 0.926923 -16.415643 9.671811 -1.157255 22.368113 -6.992296 -17.606496 3.106425 0.000000 0.000000 0.000000 3.807908 -1.158625 20.486491 -5.958198 1.862094 -23.719566 -2.818283 8.081757 25.898711 13.702981 -4.350039 -34.526241 0.000000 0.000000 0.000000 -22.539599 -14.753468 6.831594 -42.540105 -13.654597 -2.335333 -6.485649 -41.028965 4.324869 0.000000 0.000000 0.000000 31.013167 3.112399 0.646049 48.365817 10.487368 -3.011682 15.725664 33.283281 6.186843 0.000000 0.000000 0.000000 
-0.005377 0.913532 -0.000256 -2.008170 -10.914498 1.968767 17.210774 1.305816 -13.122098 -8.179118 2.494019 20.055536 5.603904 12.019184 3.145187 0.000000 0.000000 0.000000 -9.898973 0.998332 -17.201827 9.639258 -1.160720 23.709670 -7.307563 -18.169869 2.327126 0.000000 0.000000 0.000000 3.435998 -1.128714 21.510268 -5.585869 1.763288 -24.208967 -2.581087 8.218674 26.282518 13.450297 -4.300226 -34.039633 0.000000 0.000000 0.000000 -22.719714 -15.063228 6.954988 -42.101926 -13.256989 -2.464253 -6.431073 -41.867718 4.376005 0.000000 0.000000 0.000000 30.880054 3.304876 0.905439 47.409577 10.994065 -2.859847 16.361703 34.256598 6.592666 0.000000 0.000000 0.000000 
